# xmcd CD database file
#
# Track frame offsets:
#	150
#	11786
#	27968
#	37688
#	53705
#	70186
#	87254
#	91773
#	109245
#	121541
#	130555
#	138372
#	150090
#	159468
#
# Disc length: 2333 seconds
#
# Revision: 0
# Processed by: cddbd v1.5.2PL0 Copyright (c) Steve Scherf et al.
# Submitted via: CDex 1.51
#
DISCID=98091b0e
DTITLE=Danilo Tomic - Movimento das Águas
DYEAR=1998
DGENRE=New Age
TTITLE0=A Way Alone
TTITLE1=River Run
TTITLE2=Espiralls
TTITLE3=Respiração de Deus
TTITLE4=Movimento Mutante
TTITLE5=Reflexos Sobre a Água
TTITLE6=Dança Oriente
TTITLE7=Dança ao Caos
TTITLE8=Sol Levante
TTITLE9=Fluindo
TTITLE10=Awekwning
TTITLE11=Aquatomic
TTITLE12=Ondas Sobre a Areia
TTITLE13=Whitespread Wings
EXTD=YEAR: 1998
EXTT0=
EXTT1=
EXTT2=
EXTT3=
EXTT4=
EXTT5=
EXTT6=
EXTT7=
EXTT8=
EXTT9=
EXTT10=
EXTT11=
EXTT12=
EXTT13=
PLAYORDER=
